<svg width="37" height="36" viewBox="0 0 37 36" fill="none" xmlns="http://www.w3.org/2000/svg">
<g clip-path="url(#clip0_667_2367)">
<path d="M18.5019 6.36914L8.70312 15.0654V19.5541V29.6341H15.5206V22.0179H21.4831V29.6341H28.3006V19.5541V15.0654L18.5019 6.36914Z" fill="white"/>
<path d="M28.3006 30.3364H21.4831C21.095 30.3364 20.78 30.0214 20.78 29.6333V22.7202H16.2238V29.6333C16.2238 30.0214 15.9088 30.3364 15.5206 30.3364H8.70312C8.315 30.3364 8 30.0214 8 29.6333V15.0645C8 14.862 8.08438 14.6708 8.23625 14.5358L18.035 5.84516C18.2994 5.60891 18.7044 5.60891 18.9688 5.84516L28.7675 14.5414C28.9194 14.6764 29.0037 14.8677 29.0037 15.0702V29.6389C29.0037 30.027 28.6887 30.342 28.3006 30.342V30.3364ZM22.1862 28.9302H27.5975V15.3795L18.5019 7.30766L9.40625 15.3795V28.9302H14.8175V22.017C14.8175 21.6289 15.1325 21.3139 15.5206 21.3139H21.4831C21.8712 21.3139 22.1862 21.6289 22.1862 22.017V28.9302Z" fill="#CBCBCB"/>
<path d="M15.5195 22.0176V29.6338H18.5008H21.482V22.0176H15.5195Z" fill="#F3F3F3"/>
<path d="M21.482 30.337H15.5195C15.1314 30.337 14.8164 30.022 14.8164 29.6338V22.0176C14.8164 21.6295 15.1314 21.3145 15.5195 21.3145H21.482C21.8702 21.3145 22.1852 21.6295 22.1852 22.0176V29.6338C22.1852 30.022 21.8702 30.337 21.482 30.337ZM16.2227 28.9307H20.7789V22.7207H16.2227V28.9307Z" fill="#CBCBCB"/>
<path d="M20.7863 15.7173C20.7863 16.9773 19.7625 18.0011 18.5025 18.0011C17.2425 18.0011 16.2188 16.9773 16.2188 15.7173C16.2188 14.4573 17.2425 13.4336 18.5025 13.4336C19.7625 13.4336 20.7863 14.4573 20.7863 15.7173Z" fill="#F3F3F3"/>
<path d="M18.5025 18.7042C16.8544 18.7042 15.5156 17.3655 15.5156 15.7173C15.5156 14.0692 16.8544 12.7305 18.5025 12.7305C20.1506 12.7305 21.4894 14.0692 21.4894 15.7173C21.4894 17.3655 20.1506 18.7042 18.5025 18.7042ZM18.5025 14.1367C17.6306 14.1367 16.9219 14.8455 16.9219 15.7173C16.9219 16.5892 17.6306 17.298 18.5025 17.298C19.3744 17.298 20.0831 16.5892 20.0831 15.7173C20.0831 14.8455 19.3744 14.1367 18.5025 14.1367Z" fill="#CBCBCB"/>
</g>
<defs>
<clipPath id="clip0_667_2367">
<rect width="36" height="36" fill="white" transform="translate(0.5)"/>
</clipPath>
</defs>
</svg>
