<svg width="36" height="36" viewBox="0 0 36 36" fill="none" xmlns="http://www.w3.org/2000/svg">
<g clip-path="url(#clip0_690_3095)">
<path d="M10.9102 5.28711L13.942 10.6759H22.0645L25.102 5.28711H10.9102Z" fill="#83D8FF"/>
<path d="M22.0631 11.3792H13.9406C13.6874 11.3792 13.4512 11.2442 13.3274 11.0192L10.2899 5.63609C10.1662 5.41672 10.1718 5.15234 10.2899 4.93859C10.4137 4.72484 10.6443 4.58984 10.8974 4.58984H25.0893C25.3368 4.58984 25.5674 4.72484 25.6968 4.93859C25.8206 5.15234 25.8262 5.42234 25.6968 5.63609L22.6593 11.0192C22.5356 11.2386 22.2993 11.3792 22.0462 11.3792H22.0631ZM14.3512 9.97297H21.6524L23.8968 5.99609H12.1068L14.3512 9.97297Z" fill="#006594"/>
<path d="M13.9414 10.6761L10.9039 5.29297L7.75391 10.6761L12.4733 19.0517C13.9245 17.9717 15.6964 17.3023 17.6258 17.2292L13.9358 10.6817L13.9414 10.6761Z" fill="#83D8FF"/>
<path d="M12.4779 19.7484C12.4273 19.7484 12.3823 19.7484 12.3317 19.7315C12.1348 19.6921 11.966 19.5627 11.8648 19.3884L7.1454 11.0127C7.02165 10.7934 7.02728 10.529 7.1454 10.3152L10.2954 4.9321C10.4248 4.71273 10.6329 4.56648 10.9085 4.58335C11.1617 4.58335 11.3923 4.72398 11.516 4.94335L14.5535 10.3265L18.2435 16.874C18.3617 17.0877 18.3617 17.3465 18.2435 17.5602C18.1254 17.774 17.9004 17.909 17.6585 17.9202C15.926 17.9877 14.2835 18.5727 12.8998 19.6077C12.776 19.6977 12.6298 19.7484 12.4779 19.7484ZM8.56853 10.6809L12.7085 18.0327C13.8617 17.3071 15.1385 16.829 16.4829 16.6265L10.8973 6.69835L8.56853 10.6809Z" fill="#006594"/>
<path d="M28.2469 10.6761L25.1025 5.29297L22.065 10.6761L18.375 17.2236C20.3044 17.3023 22.0762 17.9661 23.5275 19.0461L28.2469 10.6705V10.6761Z" fill="#83D8FF"/>
<path d="M23.5261 19.7489C23.3742 19.7489 23.228 19.6983 23.1042 19.6083C21.7205 18.5733 20.0723 17.9939 18.3455 17.9208C18.098 17.9095 17.8786 17.7745 17.7605 17.5608C17.6423 17.347 17.6423 17.0883 17.7605 16.8745L24.488 4.93829C24.6117 4.71892 24.8423 4.58392 25.0955 4.57829C25.3598 4.57267 25.5792 4.70767 25.7086 4.92704L28.853 10.3102C28.9767 10.5239 28.9823 10.7939 28.853 11.0077L24.1336 19.3833C24.0323 19.5577 23.8636 19.687 23.6667 19.7264C23.6161 19.7377 23.5711 19.7433 23.5205 19.7433L23.5261 19.7489ZM19.5155 16.627C20.8598 16.8295 22.1423 17.3077 23.2898 18.0333L27.4298 10.6814L25.1067 6.70454L19.5155 16.6327V16.627Z" fill="#006594"/>
<path d="M18.3714 17.222C18.2477 17.222 18.1239 17.2051 18.0002 17.2051C17.8764 17.2051 17.7527 17.2163 17.6289 17.222" fill="#83D8FF"/>
<path d="M18.3721 17.9256H18.344L18.1808 17.9143C18.0627 17.9087 17.939 17.9087 17.8208 17.9143L17.6577 17.9256C17.2752 17.9368 16.9433 17.6387 16.9265 17.2506C16.9096 16.8624 17.2133 16.5362 17.6015 16.5193H17.7252C17.9108 16.5025 18.0908 16.5024 18.2765 16.5137H18.4002C18.7883 16.5362 19.0921 16.8624 19.0752 17.2506C19.0583 17.6274 18.749 17.9256 18.3721 17.9256Z" fill="#006594"/>
<path d="M25.5614 23.1518C25.5614 27.3255 22.1752 30.7118 18.0014 30.7118C13.8277 30.7118 10.4414 27.3255 10.4414 23.1518C10.4414 18.978 13.8277 15.5918 18.0014 15.5918C22.1752 15.5918 25.5614 18.978 25.5614 23.1518Z" fill="#EBF9FF"/>
<path d="M18.0014 31.4149C13.4452 31.4149 9.73828 27.708 9.73828 23.1518C9.73828 18.5955 13.4452 14.8887 18.0014 14.8887C22.5577 14.8887 26.2645 18.5955 26.2645 23.1518C26.2645 27.708 22.5577 31.4149 18.0014 31.4149ZM18.0014 16.2949C14.2214 16.2949 11.1445 19.3718 11.1445 23.1518C11.1445 26.9318 14.2214 30.0087 18.0014 30.0087C21.7814 30.0087 24.8583 26.9318 24.8583 23.1518C24.8583 19.3718 21.7814 16.2949 18.0014 16.2949Z" fill="#006594"/>
<path d="M21.375 23.1523C21.375 25.0142 19.8619 26.5273 18 26.5273C16.1381 26.5273 14.625 25.0142 14.625 23.1523C14.625 21.2905 16.1381 19.7773 18 19.7773C19.8619 19.7773 21.375 21.2905 21.375 23.1523Z" fill="white"/>
<path d="M18 27.2305C15.75 27.2305 13.9219 25.4023 13.9219 23.1523C13.9219 20.9023 15.75 19.0742 18 19.0742C20.25 19.0742 22.0781 20.9023 22.0781 23.1523C22.0781 25.4023 20.25 27.2305 18 27.2305ZM18 20.4805C16.5263 20.4805 15.3281 21.6786 15.3281 23.1523C15.3281 24.6261 16.5263 25.8242 18 25.8242C19.4737 25.8242 20.6719 24.6261 20.6719 23.1523C20.6719 21.6786 19.4737 20.4805 18 20.4805Z" fill="#006594"/>
</g>
<defs>
<clipPath id="clip0_690_3095">
<rect width="36" height="36" fill="white"/>
</clipPath>
</defs>
</svg>
