<svg width="37" height="36" viewBox="0 0 37 36" fill="none" xmlns="http://www.w3.org/2000/svg">
<g clip-path="url(#clip0_667_2381)">
<path d="M8.4325 6.66016H15.1656C16.1387 6.66016 16.9262 7.44766 16.9262 8.42078V27.5795C16.9262 28.5527 16.1387 29.3402 15.1656 29.3402H8.4325C7.45938 29.3402 6.67188 28.5527 6.67188 27.5795V8.42078C6.67188 7.44766 7.45938 6.66016 8.4325 6.66016Z" fill="#F3F3F3"/>
<path d="M15.1656 30.0433H8.4325C7.07125 30.0433 5.96875 28.9408 5.96875 27.5795V8.42078C5.96875 7.05953 7.07125 5.95703 8.4325 5.95703H15.1656C16.5269 5.95703 17.6294 7.06516 17.6294 8.42078V27.5795C17.6294 28.9408 16.5269 30.0433 15.1656 30.0433ZM8.4325 7.36328C7.8475 7.36328 7.375 7.83578 7.375 8.42078V27.5795C7.375 28.1645 7.8475 28.637 8.4325 28.637H15.1656C15.7506 28.637 16.2231 28.1645 16.2231 27.5795V8.42078C16.2231 7.83578 15.7506 7.36328 15.1656 7.36328H8.4325Z" fill="#CBCBCB"/>
<path d="M13.1367 10.002H10.4648V15.6213H13.1367V10.002Z" fill="white"/>
<path d="M13.1367 16.3245H10.4648C10.0767 16.3245 9.76172 16.0095 9.76172 15.6213V10.002C9.76172 9.61383 10.0767 9.29883 10.4648 9.29883H13.1367C13.5248 9.29883 13.8398 9.61383 13.8398 10.002V15.6213C13.8398 16.0095 13.5248 16.3245 13.1367 16.3245ZM11.168 14.9182H12.4336V10.7051H11.168V14.9182Z" fill="#CBCBCB"/>
<path d="M21.8388 6.66016H28.5719C29.545 6.66016 30.3325 7.44766 30.3325 8.42078V27.5795C30.3325 28.5527 29.545 29.3402 28.5719 29.3402H21.8388C20.8656 29.3402 20.0781 28.5527 20.0781 27.5795V8.42078C20.0781 7.44766 20.8656 6.66016 21.8388 6.66016Z" fill="white"/>
<path d="M28.5719 30.0433H21.8388C20.4775 30.0433 19.375 28.9408 19.375 27.5795V8.42078C19.375 7.05953 20.4775 5.95703 21.8388 5.95703H28.5719C29.9331 5.95703 31.0356 7.06516 31.0356 8.42078V27.5795C31.0356 28.9408 29.9331 30.0433 28.5719 30.0433ZM21.8388 7.36328C21.2538 7.36328 20.7812 7.83578 20.7812 8.42078V27.5795C20.7812 28.1645 21.2538 28.637 21.8388 28.637H28.5719C29.1569 28.637 29.6294 28.1645 29.6294 27.5795V8.42078C29.6294 7.83578 29.1569 7.36328 28.5719 7.36328H21.8388Z" fill="#CBCBCB"/>
<path d="M26.543 10.002H23.8711V15.6213H26.543V10.002Z" fill="white"/>
<path d="M26.543 16.3245H23.8711C23.483 16.3245 23.168 16.0095 23.168 15.6213V10.002C23.168 9.61383 23.483 9.29883 23.8711 9.29883H26.543C26.9311 9.29883 27.2461 9.61383 27.2461 10.002V15.6213C27.2461 16.0095 26.9311 16.3245 26.543 16.3245ZM24.5742 14.9182H25.8398V10.7051H24.5742V14.9182Z" fill="#CBCBCB"/>
</g>
<defs>
<clipPath id="clip0_667_2381">
<rect width="36" height="36" fill="white" transform="translate(0.5)"/>
</clipPath>
</defs>
</svg>
