<svg width="37" height="36" viewBox="0 0 37 36" fill="none" xmlns="http://www.w3.org/2000/svg">
<g clip-path="url(#clip0_667_2415)">
<path d="M11.4102 5.28711L14.442 10.6759H22.5645L25.602 5.28711H11.4102Z" fill="white"/>
<path d="M22.5631 11.3792H14.4406C14.1874 11.3792 13.9512 11.2442 13.8274 11.0192L10.7899 5.63609C10.6662 5.41672 10.6718 5.15234 10.7899 4.93859C10.9137 4.72484 11.1443 4.58984 11.3974 4.58984H25.5893C25.8368 4.58984 26.0674 4.72484 26.1968 4.93859C26.3206 5.15234 26.3262 5.42234 26.1968 5.63609L23.1593 11.0192C23.0356 11.2386 22.7993 11.3792 22.5462 11.3792H22.5631ZM14.8512 9.97297H22.1524L24.3968 5.99609H12.6068L14.8512 9.97297Z" fill="#CBCBCB"/>
<path d="M14.4414 10.6761L11.4039 5.29297L8.25391 10.6761L12.9733 19.0517C14.4245 17.9717 16.1964 17.3023 18.1258 17.2292L14.4358 10.6817L14.4414 10.6761Z" fill="white"/>
<path d="M12.9779 19.7484C12.9273 19.7484 12.8823 19.7484 12.8317 19.7315C12.6348 19.6921 12.466 19.5627 12.3648 19.3884L7.6454 11.0127C7.52165 10.7934 7.52728 10.529 7.6454 10.3152L10.7954 4.9321C10.9248 4.71273 11.1329 4.56648 11.4085 4.58335C11.6617 4.58335 11.8923 4.72398 12.016 4.94335L15.0535 10.3265L18.7435 16.874C18.8617 17.0877 18.8617 17.3465 18.7435 17.5602C18.6254 17.774 18.4004 17.909 18.1585 17.9202C16.426 17.9877 14.7835 18.5727 13.3998 19.6077C13.276 19.6977 13.1298 19.7484 12.9779 19.7484ZM9.06853 10.6809L13.2085 18.0327C14.3617 17.3071 15.6385 16.829 16.9829 16.6265L11.3973 6.69835L9.06853 10.6809Z" fill="#CBCBCB"/>
<path d="M28.7469 10.6761L25.6025 5.29297L22.565 10.6761L18.875 17.2236C20.8044 17.3023 22.5762 17.9661 24.0275 19.0461L28.7469 10.6705V10.6761Z" fill="white"/>
<path d="M24.0261 19.7489C23.8742 19.7489 23.728 19.6983 23.6042 19.6083C22.2205 18.5733 20.5723 17.9939 18.8455 17.9208C18.598 17.9095 18.3786 17.7745 18.2605 17.5608C18.1423 17.347 18.1423 17.0883 18.2605 16.8745L24.988 4.93829C25.1117 4.71892 25.3423 4.58392 25.5955 4.57829C25.8598 4.57267 26.0792 4.70767 26.2086 4.92704L29.353 10.3102C29.4767 10.5239 29.4823 10.7939 29.353 11.0077L24.6336 19.3833C24.5323 19.5577 24.3636 19.687 24.1667 19.7264C24.1161 19.7377 24.0711 19.7433 24.0205 19.7433L24.0261 19.7489ZM20.0155 16.627C21.3598 16.8295 22.6423 17.3077 23.7898 18.0333L27.9298 10.6814L25.6067 6.70454L20.0155 16.6327V16.627Z" fill="#CBCBCB"/>
<path d="M18.8714 17.222C18.7477 17.222 18.6239 17.2051 18.5002 17.2051C18.3764 17.2051 18.2527 17.2163 18.1289 17.222" fill="white"/>
<path d="M18.8721 17.9256H18.844L18.6808 17.9143C18.5627 17.9087 18.439 17.9087 18.3208 17.9143L18.1577 17.9256C17.7752 17.9368 17.4433 17.6387 17.4265 17.2506C17.4096 16.8624 17.7133 16.5362 18.1015 16.5193H18.2252C18.4108 16.5025 18.5908 16.5024 18.7765 16.5137H18.9002C19.2883 16.5362 19.5921 16.8624 19.5752 17.2506C19.5583 17.6274 19.249 17.9256 18.8721 17.9256Z" fill="#CBCBCB"/>
<path d="M26.0614 23.1518C26.0614 27.3255 22.6752 30.7118 18.5014 30.7118C14.3277 30.7118 10.9414 27.3255 10.9414 23.1518C10.9414 18.978 14.3277 15.5918 18.5014 15.5918C22.6752 15.5918 26.0614 18.978 26.0614 23.1518Z" fill="#F3F3F3"/>
<path d="M18.5014 31.4149C13.9452 31.4149 10.2383 27.708 10.2383 23.1518C10.2383 18.5955 13.9452 14.8887 18.5014 14.8887C23.0577 14.8887 26.7645 18.5955 26.7645 23.1518C26.7645 27.708 23.0577 31.4149 18.5014 31.4149ZM18.5014 16.2949C14.7214 16.2949 11.6445 19.3718 11.6445 23.1518C11.6445 26.9318 14.7214 30.0087 18.5014 30.0087C22.2814 30.0087 25.3583 26.9318 25.3583 23.1518C25.3583 19.3718 22.2814 16.2949 18.5014 16.2949Z" fill="#CBCBCB"/>
<path d="M21.875 23.1523C21.875 25.0142 20.3619 26.5273 18.5 26.5273C16.6381 26.5273 15.125 25.0142 15.125 23.1523C15.125 21.2905 16.6381 19.7773 18.5 19.7773C20.3619 19.7773 21.875 21.2905 21.875 23.1523Z" fill="white"/>
<path d="M18.5 27.2305C16.25 27.2305 14.4219 25.4023 14.4219 23.1523C14.4219 20.9023 16.25 19.0742 18.5 19.0742C20.75 19.0742 22.5781 20.9023 22.5781 23.1523C22.5781 25.4023 20.75 27.2305 18.5 27.2305ZM18.5 20.4805C17.0263 20.4805 15.8281 21.6786 15.8281 23.1523C15.8281 24.6261 17.0263 25.8242 18.5 25.8242C19.9737 25.8242 21.1719 24.6261 21.1719 23.1523C21.1719 21.6786 19.9737 20.4805 18.5 20.4805Z" fill="#CBCBCB"/>
</g>
<defs>
<clipPath id="clip0_667_2415">
<rect width="36" height="36" fill="white" transform="translate(0.5)"/>
</clipPath>
</defs>
</svg>
