<svg width="36" height="36" viewBox="0 0 36 36" fill="none" xmlns="http://www.w3.org/2000/svg">
<g clip-path="url(#clip0_690_3080)">
<path d="M30.0938 18C30.0938 24.6769 24.6825 30.0938 18 30.0938C11.3175 30.0938 5.90625 24.6769 5.90625 18C5.90625 11.3231 11.3231 5.90625 18 5.90625C24.6769 5.90625 30.0938 11.3231 30.0938 18Z" fill="#83D8FF"/>
<path d="M18 30.7969C10.9463 30.7969 5.20312 25.0537 5.20312 18C5.20312 10.9463 10.9463 5.20312 18 5.20312C25.0537 5.20312 30.7969 10.9463 30.7969 18C30.7969 25.0537 25.0537 30.7969 18 30.7969ZM18 6.60938C11.7169 6.60938 6.60938 11.7169 6.60938 18C6.60938 24.2831 11.7169 29.3906 18 29.3906C24.2831 29.3906 29.3906 24.2831 29.3906 18C29.3906 11.7169 24.2831 6.60938 18 6.60938Z" fill="#006594"/>
<path d="M20.2823 13.6509C20.2823 14.9109 19.2586 15.9347 17.9986 15.9347C16.7386 15.9347 15.7148 14.9109 15.7148 13.6509C15.7148 12.3909 16.7386 11.3672 17.9986 11.3672C19.2586 11.3672 20.2823 12.3909 20.2823 13.6509Z" fill="white"/>
<path d="M17.9986 16.6378C16.3505 16.6378 15.0117 15.2991 15.0117 13.6509C15.0117 12.0028 16.3505 10.6641 17.9986 10.6641C19.6467 10.6641 20.9855 12.0028 20.9855 13.6509C20.9855 15.2991 19.6467 16.6378 17.9986 16.6378ZM17.9986 12.0703C17.1267 12.0703 16.418 12.7791 16.418 13.6509C16.418 14.5228 17.1267 15.2316 17.9986 15.2316C18.8705 15.2316 19.5792 14.5228 19.5792 13.6509C19.5792 12.7791 18.8705 12.0703 17.9986 12.0703Z" fill="#006594"/>
<path d="M20.0964 18.3809H15.9002C14.8089 18.3809 13.9258 19.264 13.9258 20.3552V24.169H22.0764V20.3552C22.0764 19.264 21.1933 18.3809 20.102 18.3809H20.0964Z" fill="white"/>
<path d="M22.0725 24.8662H13.9219C13.5338 24.8662 13.2188 24.5512 13.2188 24.1631V20.3494C13.2188 18.87 14.4225 17.6719 15.8963 17.6719H20.0925C21.5719 17.6719 22.77 18.8756 22.77 20.3494V24.1631C22.77 24.5512 22.455 24.8662 22.0669 24.8662H22.0725ZM14.625 23.46H21.3694V20.3494C21.3694 19.6463 20.7956 19.0781 20.0981 19.0781H15.9019C15.1988 19.0781 14.6306 19.6463 14.6306 20.3494V23.46H14.625Z" fill="#006594"/>
</g>
<defs>
<clipPath id="clip0_690_3080">
<rect width="36" height="36" fill="white"/>
</clipPath>
</defs>
</svg>
