<svg width="36" height="36" viewBox="0 0 36 36" fill="none" xmlns="http://www.w3.org/2000/svg">
<g clip-path="url(#clip0_690_3061)">
<path d="M7.9325 6.66016H14.6656C15.6387 6.66016 16.4262 7.44766 16.4262 8.42078V27.5795C16.4262 28.5527 15.6387 29.3402 14.6656 29.3402H7.9325C6.95938 29.3402 6.17188 28.5527 6.17188 27.5795V8.42078C6.17188 7.44766 6.95938 6.66016 7.9325 6.66016Z" fill="#EBF9FF"/>
<path d="M14.6656 30.0433H7.9325C6.57125 30.0433 5.46875 28.9408 5.46875 27.5795V8.42078C5.46875 7.05953 6.57125 5.95703 7.9325 5.95703H14.6656C16.0269 5.95703 17.1294 7.06516 17.1294 8.42078V27.5795C17.1294 28.9408 16.0269 30.0433 14.6656 30.0433ZM7.9325 7.36328C7.3475 7.36328 6.875 7.83578 6.875 8.42078V27.5795C6.875 28.1645 7.3475 28.637 7.9325 28.637H14.6656C15.2506 28.637 15.7231 28.1645 15.7231 27.5795V8.42078C15.7231 7.83578 15.2506 7.36328 14.6656 7.36328H7.9325Z" fill="#006594"/>
<path d="M12.6367 10.002H9.96484V15.6213H12.6367V10.002Z" fill="white"/>
<path d="M12.6367 16.3245H9.96484C9.57672 16.3245 9.26172 16.0095 9.26172 15.6213V10.002C9.26172 9.61383 9.57672 9.29883 9.96484 9.29883H12.6367C13.0248 9.29883 13.3398 9.61383 13.3398 10.002V15.6213C13.3398 16.0095 13.0248 16.3245 12.6367 16.3245ZM10.668 14.9182H11.9336V10.7051H10.668V14.9182Z" fill="#006594"/>
<path d="M21.3388 6.66016H28.0719C29.045 6.66016 29.8325 7.44766 29.8325 8.42078V27.5795C29.8325 28.5527 29.045 29.3402 28.0719 29.3402H21.3388C20.3656 29.3402 19.5781 28.5527 19.5781 27.5795V8.42078C19.5781 7.44766 20.3656 6.66016 21.3388 6.66016Z" fill="#83D8FF"/>
<path d="M28.0719 30.0433H21.3388C19.9775 30.0433 18.875 28.9408 18.875 27.5795V8.42078C18.875 7.05953 19.9775 5.95703 21.3388 5.95703H28.0719C29.4331 5.95703 30.5356 7.06516 30.5356 8.42078V27.5795C30.5356 28.9408 29.4331 30.0433 28.0719 30.0433ZM21.3388 7.36328C20.7538 7.36328 20.2812 7.83578 20.2812 8.42078V27.5795C20.2812 28.1645 20.7538 28.637 21.3388 28.637H28.0719C28.6569 28.637 29.1294 28.1645 29.1294 27.5795V8.42078C29.1294 7.83578 28.6569 7.36328 28.0719 7.36328H21.3388Z" fill="#006594"/>
<path d="M26.043 10.002H23.3711V15.6213H26.043V10.002Z" fill="white"/>
<path d="M26.043 16.3245H23.3711C22.983 16.3245 22.668 16.0095 22.668 15.6213V10.002C22.668 9.61383 22.983 9.29883 23.3711 9.29883H26.043C26.4311 9.29883 26.7461 9.61383 26.7461 10.002V15.6213C26.7461 16.0095 26.4311 16.3245 26.043 16.3245ZM24.0742 14.9182H25.3398V10.7051H24.0742V14.9182Z" fill="#006594"/>
</g>
<defs>
<clipPath id="clip0_690_3061">
<rect width="36" height="36" fill="white"/>
</clipPath>
</defs>
</svg>
