<svg width="37" height="36" viewBox="0 0 37 36" fill="none" xmlns="http://www.w3.org/2000/svg">
<g clip-path="url(#clip0_667_2400)">
<path d="M30.5938 18C30.5938 24.6769 25.1825 30.0938 18.5 30.0938C11.8175 30.0938 6.40625 24.6769 6.40625 18C6.40625 11.3231 11.8231 5.90625 18.5 5.90625C25.1769 5.90625 30.5938 11.3231 30.5938 18Z" fill="white"/>
<path d="M18.5 30.7969C11.4463 30.7969 5.70312 25.0537 5.70312 18C5.70312 10.9463 11.4463 5.20312 18.5 5.20312C25.5537 5.20312 31.2969 10.9463 31.2969 18C31.2969 25.0537 25.5537 30.7969 18.5 30.7969ZM18.5 6.60938C12.2169 6.60938 7.10938 11.7169 7.10938 18C7.10938 24.2831 12.2169 29.3906 18.5 29.3906C24.7831 29.3906 29.8906 24.2831 29.8906 18C29.8906 11.7169 24.7831 6.60938 18.5 6.60938Z" fill="#CBCBCB"/>
<path d="M20.7823 13.6509C20.7823 14.9109 19.7586 15.9347 18.4986 15.9347C17.2386 15.9347 16.2148 14.9109 16.2148 13.6509C16.2148 12.3909 17.2386 11.3672 18.4986 11.3672C19.7586 11.3672 20.7823 12.3909 20.7823 13.6509Z" fill="white"/>
<path d="M18.4986 16.6378C16.8505 16.6378 15.5117 15.2991 15.5117 13.6509C15.5117 12.0028 16.8505 10.6641 18.4986 10.6641C20.1467 10.6641 21.4855 12.0028 21.4855 13.6509C21.4855 15.2991 20.1467 16.6378 18.4986 16.6378ZM18.4986 12.0703C17.6267 12.0703 16.918 12.7791 16.918 13.6509C16.918 14.5228 17.6267 15.2316 18.4986 15.2316C19.3705 15.2316 20.0792 14.5228 20.0792 13.6509C20.0792 12.7791 19.3705 12.0703 18.4986 12.0703Z" fill="#CBCBCB"/>
<path d="M20.5964 18.3809H16.4002C15.3089 18.3809 14.4258 19.264 14.4258 20.3552V24.169H22.5764V20.3552C22.5764 19.264 21.6933 18.3809 20.602 18.3809H20.5964Z" fill="white"/>
<path d="M22.5725 24.8662H14.4219C14.0338 24.8662 13.7188 24.5512 13.7188 24.1631V20.3494C13.7188 18.87 14.9225 17.6719 16.3963 17.6719H20.5925C22.0719 17.6719 23.27 18.8756 23.27 20.3494V24.1631C23.27 24.5512 22.955 24.8662 22.5669 24.8662H22.5725ZM15.125 23.46H21.8694V20.3494C21.8694 19.6463 21.2956 19.0781 20.5981 19.0781H16.4019C15.6988 19.0781 15.1306 19.6463 15.1306 20.3494V23.46H15.125Z" fill="#CBCBCB"/>
</g>
<defs>
<clipPath id="clip0_667_2400">
<rect width="36" height="36" fill="white" transform="translate(0.5)"/>
</clipPath>
</defs>
</svg>
