<svg width="36" height="36" viewBox="0 0 36 36" fill="none" xmlns="http://www.w3.org/2000/svg">
<g clip-path="url(#clip0_690_3047)">
<path d="M18.0019 6.36914L8.20312 15.0654V19.5541V29.6341H15.0206V22.0179H20.9831V29.6341H27.8006V19.5541V15.0654L18.0019 6.36914Z" fill="#83D8FF"/>
<path d="M27.8006 30.3364H20.9831C20.595 30.3364 20.28 30.0214 20.28 29.6333V22.7202H15.7238V29.6333C15.7238 30.0214 15.4088 30.3364 15.0206 30.3364H8.20312C7.815 30.3364 7.5 30.0214 7.5 29.6333V15.0645C7.5 14.862 7.58438 14.6708 7.73625 14.5358L17.535 5.84516C17.7994 5.60891 18.2044 5.60891 18.4688 5.84516L28.2675 14.5414C28.4194 14.6764 28.5037 14.8677 28.5037 15.0702V29.6389C28.5037 30.027 28.1887 30.342 27.8006 30.342V30.3364ZM21.6862 28.9302H27.0975V15.3795L18.0019 7.30766L8.90625 15.3795V28.9302H14.3175V22.017C14.3175 21.6289 14.6325 21.3139 15.0206 21.3139H20.9831C21.3712 21.3139 21.6862 21.6289 21.6862 22.017V28.9302Z" fill="#006594"/>
<path d="M15.0195 22.0176V29.6338H18.0008H20.982V22.0176H15.0195Z" fill="#EBF9FF"/>
<path d="M20.982 30.337H15.0195C14.6314 30.337 14.3164 30.022 14.3164 29.6338V22.0176C14.3164 21.6295 14.6314 21.3145 15.0195 21.3145H20.982C21.3702 21.3145 21.6852 21.6295 21.6852 22.0176V29.6338C21.6852 30.022 21.3702 30.337 20.982 30.337ZM15.7227 28.9307H20.2789V22.7207H15.7227V28.9307Z" fill="#006594"/>
<path d="M20.2863 15.7173C20.2863 16.9773 19.2625 18.0011 18.0025 18.0011C16.7425 18.0011 15.7188 16.9773 15.7188 15.7173C15.7188 14.4573 16.7425 13.4336 18.0025 13.4336C19.2625 13.4336 20.2863 14.4573 20.2863 15.7173Z" fill="#EBF9FF"/>
<path d="M18.0025 18.7042C16.3544 18.7042 15.0156 17.3655 15.0156 15.7173C15.0156 14.0692 16.3544 12.7305 18.0025 12.7305C19.6506 12.7305 20.9894 14.0692 20.9894 15.7173C20.9894 17.3655 19.6506 18.7042 18.0025 18.7042ZM18.0025 14.1367C17.1306 14.1367 16.4219 14.8455 16.4219 15.7173C16.4219 16.5892 17.1306 17.298 18.0025 17.298C18.8744 17.298 19.5831 16.5892 19.5831 15.7173C19.5831 14.8455 18.8744 14.1367 18.0025 14.1367Z" fill="#006594"/>
</g>
<defs>
<clipPath id="clip0_690_3047">
<rect width="36" height="36" fill="white"/>
</clipPath>
</defs>
</svg>
