<svg width="240" height="240" viewBox="0 0 240 240" fill="none" xmlns="http://www.w3.org/2000/svg">
<path d="M95.3281 58.56H95.9041V83.328C95.9041 96.336 106.512 106.944 119.52 106.944H192.672V59.76H143.088V11.328H95.2801C42.4801 11.328 0.624086 54.144 0.288086 108.048H47.5201C47.8561 80.208 68.5441 58.56 95.3281 58.56Z" fill="#38D0C9"/>
<path d="M192.624 11.328V36.192V59.664V106.848V119.664H94.704V114.72V108.096H47.52V228.288L167.856 227.856C207.552 227.856 239.808 195.552 239.808 155.904V11.328H192.624ZM192.624 155.856C192.624 169.488 181.536 180.624 167.856 180.624H94.752V159.6V155.28H192.672V155.856H192.624Z" fill="white"/>
</svg>
